<?xml version="1.0" standalone="no"?>
<!DOCTYPE svg PUBLIC "-//W3C//DTD SVG 20010904//EN"
 "http://www.w3.org/TR/2001/REC-SVG-20010904/DTD/svg10.dtd">
<svg version="1.0" xmlns="http://www.w3.org/2000/svg"
 width="700.000000pt" height="700.000000pt" viewBox="0 0 700.000000 700.000000"
 preserveAspectRatio="xMidYMid meet">
<metadata>
Created by potrace 1.11, written by Peter Selinger 2001-2013
</metadata>
<g transform="translate(0.000000,700.000000) scale(0.100000,-0.100000)"
fill="#000000" stroke="none">
<path d="M685 6980 c-61 -24 -115 -74 -146 -138 l-24 -47 0 -3295 0 -3295 22
-46 c12 -25 42 -64 66 -87 86 -79 -177 -72 2906 -71 2730 0 2756 0 2808 20 66
26 137 101 156 167 11 39 13 617 12 3327 l0 3280 -22 45 c-31 63 -89 117 -151
140 -51 20 -90 20 -2815 19 -2702 0 -2763 0 -2812 -19z m5264 -3480 l0 -2960
-2449 0 -2449 0 0 2960 0 2960 2449 0 2449 0 0 -2960z"/>
<path d="M1810 4801 c0 -382 3 -490 13 -493 6 -2 228 -4 492 -4 l480 1 1 493
1 492 -494 0 -493 0 0 -489z m830 243 c23 -21 40 -45 40 -58 0 -25 -436 -466
-460 -466 -8 0 -80 65 -159 144 -126 127 -142 146 -132 163 11 21 77 83 88 83
3 0 50 -44 104 -97 l99 -97 182 182 c99 100 185 182 190 182 4 0 26 -16 48
-36z"/>
<path d="M3004 4798 l1 -272 1105 0 c608 -1 1115 1 1128 3 l22 3 0 269 0 269
-1128 0 -1128 0 0 -272z"/>
<path d="M1814 4001 c-2 -2 -4 -224 -4 -493 l0 -488 493 0 494 0 -1 493 -1
492 -488 0 c-269 0 -491 -2 -493 -4z m832 -252 c26 -26 40 -47 37 -56 -8 -21
-452 -463 -465 -463 -6 0 -75 65 -154 144 -111 112 -142 149 -137 163 8 23 74
83 91 83 8 0 55 -43 107 -94 l93 -95 178 179 c99 99 186 180 194 180 8 0 33
-19 56 -41z"/>
<path d="M3011 3775 c-5 -5 -8 -127 -7 -270 l1 -260 1125 0 1125 0 3 268 c2
210 0 267 -10 268 -7 1 -512 2 -1121 3 -729 0 -1111 -2 -1116 -9z"/>
<path d="M1810 2197 l0 -492 493 0 492 0 1 493 1 492 -494 0 -493 0 0 -493z"/>
<path d="M3005 2208 c1 -145 2 -267 3 -273 1 -7 381 -9 1119 -8 615 0 1121 2
1126 2 4 1 7 123 7 271 l0 270 -1128 0 -1128 0 1 -262z"/>
</g>
</svg>
